<?xml version="1.0" encoding="UTF-8"?>
<svg width="700pt" height="700pt" version="1.1" viewBox="0 0 700 700" xmlns="http://www.w3.org/2000/svg" xmlns:xlink="http://www.w3.org/1999/xlink">
 <defs>
  <symbol id="u" overflow="visible">
   <path d="m22.359-1.3438c-1.1562 0.60547-2.3594 1.0586-3.6094 1.3594-1.2422 0.30078-2.543 0.45312-3.9062 0.45312-4.0547 0-7.2656-1.1289-9.6406-3.3906-2.3672-2.2695-3.5469-5.3438-3.5469-9.2188 0-3.8828 1.1797-6.957 3.5469-9.2188 2.375-2.2695 5.5859-3.4062 9.6406-3.4062 1.3633 0 2.6641 0.15234 3.9062 0.45312 1.25 0.30469 2.4531 0.75 3.6094 1.3438v5.0469c-1.168-0.78906-2.3203-1.3672-3.4531-1.7344-1.125-0.375-2.3125-0.5625-3.5625-0.5625-2.2305 0-3.9922 0.71875-5.2812 2.1562-1.2812 1.4297-1.9219 3.4023-1.9219 5.9219 0 2.5117 0.64062 4.4844 1.9219 5.9219 1.2891 1.4297 3.0508 2.1406 5.2812 2.1406 1.25 0 2.4375-0.17969 3.5625-0.54688 1.1328-0.375 2.2852-0.95703 3.4531-1.75z"/>
  </symbol>
  <symbol id="b" overflow="visible">
   <path d="m16.359-13.281c-0.51172-0.23828-1.0234-0.41406-1.5312-0.53125-0.5-0.11328-1.0078-0.17188-1.5156-0.17188-1.5 0-2.6562 0.48438-3.4688 1.4531-0.80469 0.96094-1.2031 2.3359-1.2031 4.125v8.4062h-5.8438v-18.25h5.8438v3c0.75-1.1953 1.6094-2.0664 2.5781-2.6094 0.96875-0.55078 2.1328-0.82812 3.5-0.82812 0.19531 0 0.40625 0.011719 0.625 0.03125 0.22656 0.011719 0.5625 0.042969 1 0.09375z"/>
  </symbol>
  <symbol id="a" overflow="visible">
   <path d="m21.016-9.1719v1.6562h-13.641c0.14453 1.375 0.64062 2.4062 1.4844 3.0938 0.85156 0.67969 2.0391 1.0156 3.5625 1.0156 1.2266 0 2.4844-0.17969 3.7656-0.54688 1.2891-0.36328 2.6133-0.91406 3.9688-1.6562v4.5c-1.375 0.52344-2.7578 0.91406-4.1406 1.1719-1.375 0.26953-2.7578 0.40625-4.1406 0.40625-3.3047 0-5.8711-0.83594-7.7031-2.5156-1.8242-1.6758-2.7344-4.0312-2.7344-7.0625 0-2.9766 0.89453-5.3164 2.6875-7.0156 1.8008-1.707 4.2734-2.5625 7.4219-2.5625 2.875 0 5.1719 0.86719 6.8906 2.5938 1.7188 1.7188 2.5781 4.0273 2.5781 6.9219zm-5.9844-1.9375c0-1.1133-0.32422-2.0078-0.96875-2.6875-0.64844-0.67578-1.4961-1.0156-2.5469-1.0156-1.125 0-2.043 0.32031-2.75 0.95312-0.71094 0.63672-1.1484 1.5547-1.3125 2.75z"/>
  </symbol>
  <symbol id="f" overflow="visible">
   <path d="m10.984-8.2188c-1.2188 0-2.1367 0.21094-2.75 0.625-0.61719 0.41797-0.92188 1.0273-0.92188 1.8281 0 0.74219 0.24219 1.3203 0.73438 1.7344 0.5 0.41797 1.1914 0.625 2.0781 0.625 1.0938 0 2.0156-0.39062 2.7656-1.1719 0.75-0.78906 1.125-1.7812 1.125-2.9688v-0.67188zm8.9062-2.1875v10.406h-5.875v-2.7031c-0.78125 1.1055-1.6641 1.9141-2.6406 2.4219-0.98047 0.5-2.168 0.75-3.5625 0.75-1.8984 0-3.4336-0.54688-4.6094-1.6406-1.1797-1.1016-1.7656-2.5352-1.7656-4.2969 0-2.1445 0.73438-3.7188 2.2031-4.7188s3.7812-1.5 6.9375-1.5h3.4375v-0.45312c0-0.92578-0.36719-1.6016-1.0938-2.0312-0.73047-0.42578-1.8672-0.64062-3.4062-0.64062-1.25 0-2.4141 0.125-3.4844 0.375-1.0742 0.25-2.0742 0.625-3 1.125v-4.4531c1.25-0.30078 2.5039-0.53125 3.7656-0.6875 1.2578-0.15625 2.5195-0.23438 3.7812-0.23438 3.2891 0 5.6641 0.65234 7.125 1.9531 1.457 1.293 2.1875 3.4023 2.1875 6.3281z"/>
  </symbol>
  <symbol id="e" overflow="visible">
   <path d="m9.1719-23.438v5.1875h6.0156v4.1719h-6.0156v7.7344c0 0.85547 0.16406 1.4336 0.5 1.7344 0.34375 0.29297 1.0156 0.4375 2.0156 0.4375h3v4.1719h-5c-2.3125 0-3.9492-0.47656-4.9062-1.4375-0.96094-0.96875-1.4375-2.6016-1.4375-4.9062v-7.7344h-2.9062v-4.1719h2.9062v-5.1875z"/>
  </symbol>
  <symbol id="k" overflow="visible">
   <path d="m15.219-15.578v-9.7812h5.875v25.359h-5.875v-2.6406c-0.80469 1.0742-1.6875 1.8594-2.6562 2.3594s-2.0898 0.75-3.3594 0.75c-2.25 0-4.1016-0.89062-5.5469-2.6719-1.4375-1.7891-2.1562-4.0938-2.1562-6.9062s0.71875-5.1094 2.1562-6.8906c1.4453-1.7891 3.2969-2.6875 5.5469-2.6875 1.2578 0 2.375 0.25781 3.3438 0.76562 0.97656 0.5 1.8672 1.2812 2.6719 2.3438zm-3.8438 11.812c1.25 0 2.2031-0.45312 2.8594-1.3594 0.65625-0.91406 0.98438-2.2422 0.98438-3.9844 0-1.7383-0.32812-3.0625-0.98438-3.9688-0.65625-0.91406-1.6094-1.375-2.8594-1.375-1.2422 0-2.1875 0.46094-2.8438 1.375-0.65625 0.90625-0.98438 2.2305-0.98438 3.9688 0 1.7422 0.32812 3.0703 0.98438 3.9844 0.65625 0.90625 1.6016 1.3594 2.8438 1.3594z"/>
  </symbol>
  <symbol id="j" overflow="visible">
   <path d="m12.516-3.7656c1.25 0 2.2031-0.45312 2.8594-1.3594 0.65625-0.91406 0.98438-2.2422 0.98438-3.9844 0-1.7383-0.32812-3.0625-0.98438-3.9688-0.65625-0.91406-1.6094-1.375-2.8594-1.375s-2.2109 0.46094-2.875 1.375c-0.66797 0.91797-1 2.2422-1 3.9688 0 1.7305 0.33203 3.0547 1 3.9688 0.66406 0.91797 1.625 1.375 2.875 1.375zm-3.875-11.812c0.80078-1.0625 1.6914-1.8438 2.6719-2.3438 0.97656-0.50781 2.1016-0.76562 3.375-0.76562 2.25 0 4.0938 0.89844 5.5312 2.6875 1.4453 1.7812 2.1719 4.0781 2.1719 6.8906s-0.72656 5.1172-2.1719 6.9062c-1.4375 1.7812-3.2812 2.6719-5.5312 2.6719-1.2734 0-2.3984-0.25-3.375-0.75-0.98047-0.50781-1.8711-1.2969-2.6719-2.3594v2.6406h-5.8438v-25.359h5.8438z"/>
  </symbol>
  <symbol id="i" overflow="visible">
   <path d="m0.40625-18.25h5.8281l4.9062 12.391 4.1719-12.391h5.8438l-7.6719 19.984c-0.78125 2.0312-1.6875 3.4453-2.7188 4.25-1.0234 0.8125-2.3711 1.2188-4.0469 1.2188h-3.375v-3.8281h1.8281c0.98828 0 1.707-0.16406 2.1562-0.48438 0.44531-0.3125 0.79688-0.875 1.0469-1.6875l0.17188-0.5z"/>
  </symbol>
  <symbol id="h" overflow="visible">
   <path d="m3.0625-24.328h7.9844l5.5469 13.016 5.5625-13.016h7.9688v24.328h-5.9219v-17.797l-5.6094 13.125h-3.9688l-5.6094-13.125v17.797h-5.9531z"/>
  </symbol>
  <symbol id="d" overflow="visible">
   <path d="m17.547-17.688v4.7656c-0.79297-0.53906-1.5898-0.94141-2.3906-1.2031-0.79297-0.25781-1.6211-0.39062-2.4844-0.39062-1.625 0-2.8906 0.47656-3.7969 1.4219-0.90625 0.94922-1.3594 2.2773-1.3594 3.9844 0 1.7109 0.45312 3.0391 1.3594 3.9844 0.90625 0.94922 2.1719 1.4219 3.7969 1.4219 0.91406 0 1.7852-0.13281 2.6094-0.40625 0.82031-0.26953 1.5781-0.67188 2.2656-1.2031v4.7812c-0.90625 0.33594-1.8359 0.58203-2.7812 0.75-0.9375 0.16406-1.8828 0.25-2.8281 0.25-3.293 0-5.8672-0.84375-7.7188-2.5312-1.8555-1.6875-2.7812-4.0352-2.7812-7.0469 0-3.0078 0.92578-5.3594 2.7812-7.0469 1.8516-1.6875 4.4258-2.5312 7.7188-2.5312 0.95703 0 1.8984 0.085938 2.8281 0.25 0.9375 0.16797 1.8633 0.41797 2.7812 0.75z"/>
  </symbol>
  <symbol id="c" overflow="visible">
   <path d="m11.484-14.516c-1.293 0-2.2773 0.46484-2.9531 1.3906-0.67969 0.92969-1.0156 2.2656-1.0156 4.0156s0.33594 3.0898 1.0156 4.0156c0.67578 0.92969 1.6602 1.3906 2.9531 1.3906 1.2695 0 2.2422-0.46094 2.9219-1.3906 0.67578-0.92578 1.0156-2.2656 1.0156-4.0156s-0.33984-3.0859-1.0156-4.0156c-0.67969-0.92578-1.6523-1.3906-2.9219-1.3906zm0-4.1719c3.1445 0 5.5977 0.85156 7.3594 2.5469 1.7695 1.6875 2.6562 4.0312 2.6562 7.0312s-0.88672 5.3516-2.6562 7.0469c-1.7617 1.6875-4.2148 2.5312-7.3594 2.5312-3.1484 0-5.6094-0.84375-7.3906-2.5312-1.7734-1.6953-2.6562-4.0469-2.6562-7.0469s0.88281-5.3438 2.6562-7.0312c1.7812-1.6953 4.2422-2.5469 7.3906-2.5469z"/>
  </symbol>
  <symbol id="t" overflow="visible">
   <path d="m11.984-13.547c1.3125 0 2.25-0.24219 2.8125-0.73438 0.57031-0.48828 0.85938-1.2891 0.85938-2.4062 0-1.1016-0.28906-1.8945-0.85938-2.375-0.5625-0.47656-1.5-0.71875-2.8125-0.71875h-2.6406v6.2344zm-2.6406 4.3438v9.2031h-6.2812v-24.328h9.5781c3.207 0 5.5547 0.53906 7.0469 1.6094 1.5 1.0742 2.25 2.7773 2.25 5.1094 0 1.6055-0.39062 2.9219-1.1719 3.9531-0.77344 1.0312-1.9375 1.793-3.5 2.2812 0.85156 0.19922 1.6172 0.64062 2.2969 1.3281 0.67578 0.6875 1.3633 1.7344 2.0625 3.1406l3.4062 6.9062h-6.6875l-2.9531-6.0469c-0.60547-1.2188-1.2148-2.0469-1.8281-2.4844-0.61719-0.44531-1.4336-0.67188-2.4531-0.67188z"/>
  </symbol>
  <symbol id="g" overflow="visible">
   <path d="m2.7969-18.25h5.8438v18.25h-5.8438zm0-7.1094h5.8438v4.7656h-5.8438z"/>
  </symbol>
  <symbol id="s" overflow="visible">
   <path d="m14.812-25.359v3.8281h-3.2188c-0.83594 0-1.4141 0.15234-1.7344 0.45312-0.32422 0.30469-0.48438 0.82422-0.48438 1.5625v1.2656h4.9844v4.1719h-4.9844v14.078h-5.8438v-14.078h-2.8906v-4.1719h2.8906v-1.2656c0-1.9883 0.55078-3.457 1.6562-4.4062 1.1133-0.95703 2.832-1.4375 5.1562-1.4375z"/>
  </symbol>
  <symbol id="r" overflow="visible">
   <path d="m19.719-15.219c0.73828-1.1328 1.6133-1.9922 2.625-2.5781 1.0195-0.59375 2.1406-0.89062 3.3594-0.89062 2.0938 0 3.6875 0.64844 4.7812 1.9375 1.1016 1.293 1.6562 3.1719 1.6562 5.6406v11.109h-5.875v-9.5156c0.007813-0.14453 0.015625-0.28906 0.015625-0.4375 0.007812-0.15625 0.015625-0.375 0.015625-0.65625 0-1.2891-0.19531-2.2266-0.57812-2.8125-0.375-0.58203-0.98438-0.875-1.8281-0.875-1.1055 0-1.9609 0.46094-2.5625 1.375-0.60547 0.91797-0.91797 2.2344-0.9375 3.9531v8.9688h-5.875v-9.5156c0-2.0195-0.17188-3.3203-0.51562-3.9062-0.34375-0.58203-0.96484-0.875-1.8594-0.875-1.1172 0-1.9805 0.46484-2.5938 1.3906-0.60547 0.91797-0.90625 2.2266-0.90625 3.9219v8.9844h-5.875v-18.25h5.875v2.6719c0.71875-1.0312 1.5391-1.8047 2.4688-2.3281 0.92578-0.51953 1.9453-0.78125 3.0625-0.78125 1.2578 0 2.375 0.30859 3.3438 0.92188 0.96875 0.60547 1.7031 1.4531 2.2031 2.5469z"/>
  </symbol>
  <symbol id="q" overflow="visible">
   <path d="m21.156-11.109v11.109h-5.875v-8.4688c0-1.6016-0.039062-2.7031-0.10938-3.2969-0.0625-0.59375-0.18359-1.0352-0.35938-1.3281-0.23047-0.375-0.54297-0.66406-0.9375-0.875-0.38672-0.21875-0.82812-0.32812-1.3281-0.32812-1.2188 0-2.1797 0.47656-2.875 1.4219-0.6875 0.9375-1.0312 2.2344-1.0312 3.8906v8.9844h-5.8438v-25.359h5.8438v9.7812c0.875-1.0625 1.8047-1.8438 2.7969-2.3438 0.98828-0.50781 2.082-0.76562 3.2812-0.76562 2.1016 0 3.7031 0.64844 4.7969 1.9375 1.0938 1.293 1.6406 3.1719 1.6406 5.6406z"/>
  </symbol>
  <symbol id="p" overflow="visible">
   <path d="m3.0625-24.328h7.0156l8.8438 16.688v-16.688h5.9531v24.328h-7.0156l-8.8438-16.688v16.688h-5.9531z"/>
  </symbol>
  <symbol id="o" overflow="visible">
   <path d="m2.6094-7.1094v-11.141h5.8594v1.8281c0 0.99219-0.007812 2.2305-0.015625 3.7188-0.011719 1.4922-0.015625 2.4844-0.015625 2.9844 0 1.4688 0.035156 2.5273 0.10938 3.1719 0.082031 0.64844 0.21875 1.1172 0.40625 1.4062 0.23828 0.38672 0.55078 0.68359 0.9375 0.89062 0.38281 0.21094 0.82812 0.3125 1.3281 0.3125 1.207 0 2.1602-0.46875 2.8594-1.4062 0.69531-0.9375 1.0469-2.2344 1.0469-3.8906v-9.0156h5.8281v18.25h-5.8281v-2.6406c-0.88672 1.0625-1.8203 1.8516-2.7969 2.3594-0.98047 0.5-2.0625 0.75-3.25 0.75-2.1055 0-3.7109-0.64453-4.8125-1.9375-1.1055-1.2891-1.6562-3.1719-1.6562-5.6406z"/>
  </symbol>
  <symbol id="n" overflow="visible">
   <path d="m21.156-11.109v11.109h-5.875v-8.5c0-1.582-0.039062-2.6719-0.10938-3.2656-0.0625-0.59375-0.18359-1.0352-0.35938-1.3281-0.23047-0.375-0.54297-0.66406-0.9375-0.875-0.38672-0.21875-0.82812-0.32812-1.3281-0.32812-1.2188 0-2.1797 0.47656-2.875 1.4219-0.6875 0.9375-1.0312 2.2344-1.0312 3.8906v8.9844h-5.8438v-18.25h5.8438v2.6719c0.875-1.0625 1.8047-1.8438 2.7969-2.3438 0.98828-0.50781 2.082-0.76562 3.2812-0.76562 2.1016 0 3.7031 0.64844 4.7969 1.9375 1.0938 1.293 1.6406 3.1719 1.6406 5.6406z"/>
  </symbol>
  <symbol id="m" overflow="visible">
   <path d="m3.0625-24.328h10.422c3.0938 0 5.4688 0.6875 7.125 2.0625s2.4844 3.3359 2.4844 5.875c0 2.5547-0.82812 4.5156-2.4844 5.8906s-4.0312 2.0625-7.125 2.0625h-4.1406v8.4375h-6.2812zm6.2812 4.5469v6.7969h3.4688c1.2188 0 2.1562-0.29688 2.8125-0.89062 0.66406-0.59375 1-1.4297 1-2.5156 0-1.0938-0.33594-1.9297-1-2.5156-0.65625-0.58203-1.5938-0.875-2.8125-0.875z"/>
  </symbol>
  <symbol id="l" overflow="visible">
   <path d="m2.7969-18.25h5.8438v17.922c0 2.4453-0.58984 4.3125-1.7656 5.5938-1.1797 1.2891-2.875 1.9375-5.0938 1.9375h-2.8906v-3.8281h1.0156c1.1016 0 1.8594-0.25 2.2656-0.75 0.41406-0.5 0.625-1.4844 0.625-2.9531zm0-7.1094h5.8438v4.7656h-5.8438z"/>
  </symbol>
 </defs>
 <g>
  <path d="m349 545.98c-8.0078-5.3398-16.02-10.012-23.359-16.02-12.684-9.3438-24.695-19.355-37.379-28.699-21.359-16.688-46.055-28.699-72.086-36.711-27.367-8.0078-53.398-17.355-79.43-29.367-10.68-4.6719-19.355-12.684-26.699-22.027-7.3438-10.012-12.016-22.027-12.684-34.707-2.0039-22.027 2.668-44.051 13.348-63.41 8.0078-14.684 20.691-26.031 35.375-33.375 16.02-8.0078 33.375-14.016 51.395-17.355 32.039-7.3438 63.41-18.02 92.777-32.039 8.6758-4.6719 17.355-9.3438 26.699-13.348 18.688-9.3438 40.715-9.3438 60.07-1.3359 10.68 4.0039 20.023 10.012 28.699 17.355 12.016 11.348 19.355 26.031 20.691 42.051 5.3398 34.039 14.016 66.746 26.031 98.785 7.3438 19.355 15.352 38.711 22.027 58.738 5.3398 14.684 7.3438 30.035 5.3398 45.387-3.3359 20.691-12.684 39.379-28.035 54.062-14.016 14.684-32.707 24.027-52.73 26.031-8.0078 0-15.352-0.66797-23.359-2.0039-2.0039 0-4.6719-0.66797-6.6758-1.3359z"/>
  <path d="m432.43 7.3438c4.6719 4.6719 8.6758 9.3438 12.016 14.684 8.0078 12.684 10.68 28.035 8.6758 42.719-2.668 25.363-14.016 49.391-32.707 66.746-11.348 12.016-27.367 19.355-44.051 20.023-17.355 0-33.375-10.012-40.047-26.031-8.0078-19.355-8.6758-40.715-1.3359-60.07 6.6758-20.691 19.355-39.379 37.379-52.062 13.348-11.348 31.371-15.352 48.059-11.348h1.3359z"/>
  <path d="m284.92 159.52c-8.6758 19.355-24.695 35.375-44.719 43.387-24.027 10.68-52.062 0-62.742-24.027-1.3359-2.668-2.0039-4.6719-2.668-7.3438-6.6758-22.027-4.6719-45.387 4.6719-66.078 6.6758-16.688 18.688-31.371 33.375-42.051 11.348-8.6758 25.363-12.684 39.379-10.68 16.688 2.0039 31.371 13.348 37.379 29.367 10.68 24.027 7.3438 48.059-2.0039 72.086-0.66797 1.3359-1.3359 3.3359-2.6719 5.3398z"/>
  <path d="m461.13 130.16c12.016-22.695 31.371-40.047 55.398-48.727 13.348-5.3398 28.035-5.3398 41.383-0.66797 9.3438 3.3359 16.688 10.012 20.023 19.355 13.348 32.707 5.3398 70.082-20.023 94.113-13.348 14.016-30.703 23.359-50.059 26.699-26.031 5.3398-51.395-12.016-56.734-38.047-0.66797-4.0039-1.3359-8.6758-0.66797-12.684 0-14.012 4.0039-28.031 10.68-40.043z"/>
  <path d="m482.49 300.36c12.016-22.695 24.027-38.047 42.719-48.059 12.684-6.6758 27.367-8.0078 41.383-4.0039 6.6758 2.0039 12.684 6.0078 16.688 12.016 18.02 20.023 23.359 47.391 15.352 72.754-4.6719 17.355-14.016 33.375-27.367 46.055-20.023 18.688-46.723 20.023-69.414 6.0078-11.348-6.6758-20.023-16.688-24.695-29.367-3.3359-10.012-4.6719-20.691-2.0039-30.703 2-9.3477 6.0039-19.363 7.3398-24.699z"/>
  <use x="97.367188" y="660.121094" xlink:href="#u"/>
  <use x="121.859375" y="660.121094" xlink:href="#b"/>
  <use x="138.316406" y="660.121094" xlink:href="#a"/>
  <use x="160.949219" y="660.121094" xlink:href="#f"/>
  <use x="183.472656" y="660.121094" xlink:href="#e"/>
  <use x="199.425781" y="660.121094" xlink:href="#a"/>
  <use x="222.058594" y="660.121094" xlink:href="#k"/>
  <use x="257.566406" y="660.121094" xlink:href="#j"/>
  <use x="281.457031" y="660.121094" xlink:href="#i"/>
  <use x="314.828125" y="660.121094" xlink:href="#h"/>
  <use x="348.039062" y="660.121094" xlink:href="#f"/>
  <use x="370.558594" y="660.121094" xlink:href="#b"/>
  <use x="387.015625" y="660.121094" xlink:href="#d"/>
  <use x="406.800781" y="660.121094" xlink:href="#c"/>
  <use x="441.347656" y="660.121094" xlink:href="#t"/>
  <use x="467.042969" y="660.121094" xlink:href="#g"/>
  <use x="478.484375" y="660.121094" xlink:href="#d"/>
  <use x="498.265625" y="660.121094" xlink:href="#d"/>
  <use x="518.050781" y="660.121094" xlink:href="#g"/>
  <use x="97.367188" y="693.492188" xlink:href="#s"/>
  <use x="111.886719" y="693.492188" xlink:href="#b"/>
  <use x="128.34375" y="693.492188" xlink:href="#c"/>
  <use x="151.269531" y="693.492188" xlink:href="#r"/>
  <use x="197.664062" y="693.492188" xlink:href="#e"/>
  <use x="213.617188" y="693.492188" xlink:href="#q"/>
  <use x="237.375" y="693.492188" xlink:href="#a"/>
  <use x="271.628906" y="693.492188" xlink:href="#p"/>
  <use x="299.558594" y="693.492188" xlink:href="#c"/>
  <use x="322.488281" y="693.492188" xlink:href="#o"/>
  <use x="346.246094" y="693.492188" xlink:href="#n"/>
  <use x="381.625" y="693.492188" xlink:href="#m"/>
  <use x="406.082031" y="693.492188" xlink:href="#b"/>
  <use x="422.542969" y="693.492188" xlink:href="#c"/>
  <use x="445.46875" y="693.492188" xlink:href="#l"/>
  <use x="456.910156" y="693.492188" xlink:href="#a"/>
  <use x="479.542969" y="693.492188" xlink:href="#d"/>
  <use x="499.324219" y="693.492188" xlink:href="#e"/>
 </g>
</svg>
